<svg xmlns="http://www.w3.org/2000/svg" xmlns:xlink="http://www.w3.org/1999/xlink" width="500" zoomAndPan="magnify" viewBox="0 0 375 374.999991" height="500" preserveAspectRatio="xMidYMid meet" version="1.0"><defs><g/></defs><rect x="-37.5" width="450" fill="#ffffff" y="-37.499999" height="449.999989" fill-opacity="1"/><rect x="-37.5" width="450" fill="#ffffff" y="-37.499999" height="449.999989" fill-opacity="1"/><g fill="#eb5a33" fill-opacity="1"><g transform="translate(9.864132, 165.814025)"><g><path d="M 15.609375 -28.671875 C 15.609375 -25.503906 15.988281 -22.476562 16.75 -19.59375 C 17.519531 -16.707031 18.679688 -14.191406 20.234375 -12.046875 C 21.785156 -9.898438 23.71875 -8.1875 26.03125 -6.90625 C 28.351562 -5.632812 31.070312 -5 34.1875 -5 C 37.351562 -5 40.109375 -5.617188 42.453125 -6.859375 C 44.804688 -8.109375 46.757812 -9.820312 48.3125 -12 C 49.863281 -14.175781 51.019531 -16.691406 51.78125 -19.546875 C 52.550781 -22.410156 52.9375 -25.453125 52.9375 -28.671875 C 52.9375 -31.835938 52.539062 -34.847656 51.75 -37.703125 C 50.957031 -40.554688 49.769531 -43.070312 48.1875 -45.25 C 46.601562 -47.425781 44.648438 -49.148438 42.328125 -50.421875 C 40.003906 -51.703125 37.289062 -52.34375 34.1875 -52.34375 C 31.070312 -52.34375 28.351562 -51.703125 26.03125 -50.421875 C 23.71875 -49.148438 21.785156 -47.441406 20.234375 -45.296875 C 18.679688 -43.148438 17.519531 -40.644531 16.75 -37.78125 C 15.988281 -34.925781 15.609375 -31.890625 15.609375 -28.671875 Z M 4.15625 -28.671875 C 4.15625 -33.023438 4.734375 -37.238281 5.890625 -41.3125 C 7.054688 -45.382812 8.867188 -48.988281 11.328125 -52.125 C 13.785156 -55.257812 16.894531 -57.773438 20.65625 -59.671875 C 24.414062 -61.566406 28.925781 -62.515625 34.1875 -62.515625 C 39.445312 -62.515625 43.96875 -61.566406 47.75 -59.671875 C 51.539062 -57.773438 54.664062 -55.257812 57.125 -52.125 C 59.59375 -48.988281 61.40625 -45.382812 62.5625 -41.3125 C 63.71875 -37.238281 64.296875 -33.023438 64.296875 -28.671875 C 64.296875 -24.316406 63.726562 -20.101562 62.59375 -16.03125 C 61.46875 -11.957031 59.6875 -8.351562 57.25 -5.21875 C 54.820312 -2.082031 51.695312 0.414062 47.875 2.28125 C 44.0625 4.15625 39.5 5.09375 34.1875 5.09375 C 28.925781 5.09375 24.398438 4.144531 20.609375 2.25 C 16.828125 0.351562 13.71875 -2.175781 11.28125 -5.34375 C 8.851562 -8.507812 7.054688 -12.113281 5.890625 -16.15625 C 4.734375 -20.195312 4.15625 -24.367188 4.15625 -28.671875 Z M 4.15625 -28.671875 "/></g></g></g><g fill="#eb5a33" fill-opacity="1"><g transform="translate(78.317846, 165.814025)"><g><path d="M 52.515625 -60.984375 L 52.515625 -50.890625 L 32.15625 -50.890625 L 32.15625 3.640625 L 20.703125 3.640625 L 20.703125 -50.890625 L 0.421875 -50.890625 L 0.421875 -60.984375 Z M 52.515625 -60.984375 "/></g></g></g><g fill="#eb5a33" fill-opacity="1"><g transform="translate(131.248609, 165.814025)"><g><path d="M 4.15625 -28.75 C 4.15625 -33.164062 4.707031 -37.410156 5.8125 -41.484375 C 6.914062 -45.554688 8.65625 -49.144531 11.03125 -52.25 C 13.40625 -55.363281 16.472656 -57.851562 20.234375 -59.71875 C 23.992188 -61.582031 28.503906 -62.515625 33.765625 -62.515625 C 37.492188 -62.515625 40.859375 -62.019531 43.859375 -61.03125 C 46.859375 -60.039062 49.472656 -58.710938 51.703125 -57.046875 C 53.929688 -55.378906 55.796875 -53.457031 57.296875 -51.28125 C 58.796875 -49.101562 59.941406 -46.796875 60.734375 -44.359375 L 49.109375 -42.578125 C 47.523438 -45.804688 45.488281 -48.238281 43 -49.875 C 40.519531 -51.519531 37.441406 -52.34375 33.765625 -52.34375 C 28.160156 -52.34375 23.734375 -50.304688 20.484375 -46.234375 C 17.234375 -42.160156 15.609375 -36.332031 15.609375 -28.75 C 15.609375 -25.132812 16.03125 -21.867188 16.875 -18.953125 C 17.726562 -16.046875 18.945312 -13.554688 20.53125 -11.484375 C 22.113281 -9.421875 24.019531 -7.820312 26.25 -6.6875 C 28.488281 -5.5625 30.992188 -5 33.765625 -5 C 37.660156 -5 40.894531 -5.875 43.46875 -7.625 C 46.039062 -9.382812 48.035156 -11.90625 49.453125 -15.1875 L 60.90625 -13.484375 C 60 -10.828125 58.769531 -8.367188 57.21875 -6.109375 C 55.664062 -3.847656 53.769531 -1.894531 51.53125 -0.25 C 49.300781 1.382812 46.710938 2.679688 43.765625 3.640625 C 40.828125 4.609375 37.492188 5.09375 33.765625 5.09375 C 28.617188 5.09375 24.175781 4.1875 20.4375 2.375 C 16.707031 0.5625 13.640625 -1.894531 11.234375 -5 C 8.835938 -8.113281 7.054688 -11.71875 5.890625 -15.8125 C 4.734375 -19.914062 4.15625 -24.226562 4.15625 -28.75 Z M 4.15625 -28.75 "/></g></g></g><g fill="#eb5a33" fill-opacity="1"><g transform="translate(195.461083, 165.814025)"><g><path d="M 13.734375 -7.96875 L 13.734375 -36.046875 L 5.59375 -36.046875 L 5.59375 -45.296875 L 13.734375 -45.296875 L 13.734375 -65.734375 L 22.90625 -65.734375 L 22.90625 -45.296875 L 29.9375 -45.296875 L 29.9375 -38.9375 L 34.265625 -40.46875 L 34.265625 -59.046875 L 43.34375 -59.046875 L 43.34375 -43.765625 L 49.96875 -46.234375 L 49.96875 -67.265625 L 58.78125 -67.265625 L 58.78125 -49.375 L 75.75 -55.5625 C 75.695312 -54.144531 75.640625 -52.375 75.578125 -50.25 C 75.523438 -48.132812 75.46875 -45.890625 75.40625 -43.515625 C 75.351562 -41.140625 75.285156 -38.734375 75.203125 -36.296875 C 75.117188 -33.867188 75.046875 -31.648438 74.984375 -29.640625 C 74.929688 -27.640625 74.875 -25.972656 74.8125 -24.640625 C 74.757812 -23.316406 74.734375 -22.539062 74.734375 -22.3125 C 74.617188 -18.632812 73.8125 -16.046875 72.3125 -14.546875 C 70.8125 -13.046875 68.195312 -12.4375 64.46875 -12.71875 L 62.015625 -12.984375 L 60.234375 -22.484375 L 61.5 -22.140625 C 62.519531 -21.910156 63.328125 -21.820312 63.921875 -21.875 C 64.515625 -21.9375 64.9375 -22.132812 65.1875 -22.46875 C 65.445312 -22.8125 65.617188 -23.296875 65.703125 -23.921875 C 65.785156 -24.546875 65.828125 -25.3125 65.828125 -26.21875 C 65.878906 -27.40625 65.945312 -28.84375 66.03125 -30.53125 C 66.125 -32.226562 66.195312 -33.882812 66.25 -35.5 C 66.300781 -37.113281 66.34375 -38.539062 66.375 -39.78125 C 66.40625 -41.03125 66.421875 -41.796875 66.421875 -42.078125 L 58.78125 -39.359375 L 58.78125 -6.453125 L 49.96875 -6.453125 L 49.96875 -36.3125 L 43.34375 -33.9375 L 43.34375 -6.015625 C 43.34375 -4.773438 43.410156 -3.769531 43.546875 -3 C 43.691406 -2.238281 43.988281 -1.644531 44.4375 -1.21875 C 44.894531 -0.800781 45.519531 -0.519531 46.3125 -0.375 C 47.101562 -0.238281 48.148438 -0.171875 49.453125 -0.171875 L 63.875 -0.171875 C 65.457031 -0.171875 66.742188 -0.425781 67.734375 -0.9375 C 68.722656 -1.445312 69.5 -2.140625 70.0625 -3.015625 C 70.632812 -3.890625 71.046875 -4.890625 71.296875 -6.015625 C 71.554688 -7.148438 71.769531 -8.335938 71.9375 -9.578125 L 81.515625 -6.28125 C 81.003906 -3.726562 80.410156 -1.535156 79.734375 0.296875 C 79.054688 2.128906 78.191406 3.664062 77.140625 4.90625 C 76.097656 6.15625 74.8125 7.101562 73.28125 7.75 C 71.757812 8.40625 69.894531 8.734375 67.6875 8.734375 L 46.3125 8.734375 C 44.21875 8.734375 42.421875 8.535156 40.921875 8.140625 C 39.429688 7.742188 38.191406 7.09375 37.203125 6.1875 C 36.210938 5.28125 35.472656 4.078125 34.984375 2.578125 C 34.503906 1.085938 34.265625 -0.757812 34.265625 -2.96875 L 34.265625 -30.796875 L 30.703125 -29.515625 L 28.921875 -36.046875 L 22.90625 -36.046875 L 22.90625 -11.625 C 24.820312 -12.414062 26.488281 -13.09375 27.90625 -13.65625 C 29.320312 -14.21875 30.253906 -14.613281 30.703125 -14.84375 L 31.21875 -11.703125 L 32.234375 -5.9375 C 31.785156 -5.769531 30.894531 -5.429688 29.5625 -4.921875 C 28.226562 -4.410156 26.6875 -3.816406 24.9375 -3.140625 C 23.1875 -2.460938 21.332031 -1.753906 19.375 -1.015625 C 17.425781 -0.285156 15.578125 0.429688 13.828125 1.140625 C 12.078125 1.847656 10.535156 2.457031 9.203125 2.96875 C 7.867188 3.476562 6.976562 3.847656 6.53125 4.078125 L 4.078125 -4.328125 Z M 13.734375 -7.96875 "/></g></g></g><g fill="#eb5a33" fill-opacity="1"><g transform="translate(280.286028, 165.814025)"><g><path d="M 8.3125 -65.0625 L 76.171875 -65.0625 L 76.171875 10.09375 L 67.265625 10.09375 L 67.265625 6.78125 L 17.21875 6.78125 L 17.21875 10.09375 L 8.3125 10.09375 Z M 64.390625 -21.03125 C 59.578125 -22.332031 55.390625 -23.617188 51.828125 -24.890625 C 48.265625 -26.171875 45.097656 -27.546875 42.328125 -29.015625 C 41.023438 -28.390625 39.648438 -27.765625 38.203125 -27.140625 C 36.765625 -26.523438 35.226562 -25.90625 33.59375 -25.28125 C 35.113281 -25 36.78125 -24.6875 38.59375 -24.34375 C 40.40625 -24.007812 42.242188 -23.6875 44.109375 -23.375 C 45.972656 -23.0625 47.78125 -22.765625 49.53125 -22.484375 C 51.289062 -22.203125 52.878906 -21.945312 54.296875 -21.71875 L 53.609375 -14.421875 C 51.910156 -14.703125 50.015625 -15.039062 47.921875 -15.4375 C 45.835938 -15.832031 43.71875 -16.226562 41.5625 -16.625 C 39.414062 -17.019531 37.3125 -17.398438 35.25 -17.765625 C 33.1875 -18.140625 31.363281 -18.4375 29.78125 -18.65625 L 30.28125 -24 C 26.945312 -22.8125 23.21875 -21.625 19.09375 -20.4375 L 17.21875 -25.28125 L 17.21875 -1.1875 L 67.265625 -1.1875 L 67.265625 -28.671875 Z M 36.046875 -50.140625 L 62.9375 -50.140625 L 62.9375 -43.765625 C 60.789062 -41.734375 58.695312 -39.882812 56.65625 -38.21875 C 54.625 -36.550781 52.476562 -34.976562 50.21875 -33.5 C 52.757812 -32.539062 55.429688 -31.691406 58.234375 -30.953125 C 61.035156 -30.222656 64.046875 -29.546875 67.265625 -28.921875 L 67.265625 -56.578125 L 17.21875 -56.578125 L 17.21875 -28.15625 C 20.726562 -29.0625 23.921875 -29.992188 26.796875 -30.953125 C 29.679688 -31.921875 32.3125 -32.882812 34.6875 -33.84375 C 33.5625 -34.800781 32.460938 -35.800781 31.390625 -36.84375 C 30.316406 -37.894531 29.269531 -38.988281 28.25 -40.125 C 27.289062 -39.164062 26.285156 -38.203125 25.234375 -37.234375 C 24.191406 -36.273438 23.046875 -35.34375 21.796875 -34.4375 L 17.3125 -40.03125 C 20.25 -42.414062 22.875 -44.992188 25.1875 -47.765625 C 27.507812 -50.535156 29.4375 -53.21875 30.96875 -55.8125 L 38.59375 -54.125 Z M 57 -1.78125 C 54.851562 -2.175781 52.28125 -2.65625 49.28125 -3.21875 C 46.289062 -3.789062 43.222656 -4.375 40.078125 -4.96875 C 36.941406 -5.5625 33.914062 -6.125 31 -6.65625 C 28.09375 -7.195312 25.648438 -7.664062 23.671875 -8.0625 L 24.515625 -15.09375 C 26.441406 -14.757812 28.84375 -14.347656 31.71875 -13.859375 C 34.601562 -13.378906 37.628906 -12.859375 40.796875 -12.296875 C 43.960938 -11.734375 47.070312 -11.164062 50.125 -10.59375 C 53.1875 -10.03125 55.875 -9.523438 58.1875 -9.078125 Z M 34.265625 -43.765625 C 35.515625 -42.460938 36.785156 -41.289062 38.078125 -40.25 C 39.378906 -39.207031 40.738281 -38.234375 42.15625 -37.328125 C 46 -39.472656 49.082031 -41.617188 51.40625 -43.765625 Z M 34.265625 -43.765625 "/></g></g></g><g fill="#eb5a33" fill-opacity="1"><g transform="translate(21.284305, 237.880816)"><g><path d="M 2.375 -12.875 C 2.375 -14.925781 2.6875 -16.914062 3.3125 -18.84375 C 3.945312 -20.78125 4.894531 -22.488281 6.15625 -23.96875 C 7.425781 -25.445312 9.003906 -26.625 10.890625 -27.5 C 12.785156 -28.382812 15 -28.828125 17.53125 -28.828125 C 20.050781 -28.828125 22.265625 -28.394531 24.171875 -27.53125 C 26.085938 -26.664062 27.664062 -25.492188 28.90625 -24.015625 C 30.15625 -22.535156 31.09375 -20.832031 31.71875 -18.90625 C 32.351562 -16.976562 32.671875 -14.96875 32.671875 -12.875 C 32.671875 -10.707031 32.351562 -8.648438 31.71875 -6.703125 C 31.09375 -4.753906 30.148438 -3.050781 28.890625 -1.59375 C 27.628906 -0.132812 26.050781 1.035156 24.15625 1.921875 C 22.257812 2.804688 20.050781 3.25 17.53125 3.25 C 15 3.25 12.785156 2.804688 10.890625 1.921875 C 9.003906 1.035156 7.425781 -0.144531 6.15625 -1.625 C 4.894531 -3.101562 3.945312 -4.816406 3.3125 -6.765625 C 2.6875 -8.710938 2.375 -10.75 2.375 -12.875 Z M 9.515625 -12.875 C 9.515625 -9.738281 10.21875 -7.285156 11.625 -5.515625 C 13.03125 -3.742188 15 -2.859375 17.53125 -2.859375 C 20.082031 -2.859375 22.050781 -3.734375 23.4375 -5.484375 C 24.832031 -7.234375 25.53125 -9.695312 25.53125 -12.875 C 25.53125 -16.007812 24.789062 -18.425781 23.3125 -20.125 C 21.832031 -21.820312 19.90625 -22.671875 17.53125 -22.671875 C 15.1875 -22.671875 13.265625 -21.8125 11.765625 -20.09375 C 10.265625 -18.382812 9.515625 -15.976562 9.515625 -12.875 Z M 9.515625 -12.875 "/></g></g></g><g fill="#eb5a33" fill-opacity="1"><g transform="translate(56.337796, 237.880816)"><g><path d="M 6 -27.703125 L 6 -35.8125 L 13.09375 -35.8125 L 13.09375 -27.703125 L 20.34375 -27.703125 L 20.34375 -21.90625 L 13.09375 -21.90625 L 13.09375 -5.578125 C 13.09375 -4.453125 13.46875 -3.71875 14.21875 -3.375 C 14.976562 -3.03125 15.9375 -2.859375 17.09375 -2.859375 C 18.28125 -2.859375 19.34375 -3.09375 20.28125 -3.5625 L 20.28125 2.15625 C 19.269531 2.488281 18.234375 2.71875 17.171875 2.84375 C 16.109375 2.96875 15.035156 3.03125 13.953125 3.03125 C 12.796875 3.03125 11.738281 2.921875 10.78125 2.703125 C 9.832031 2.484375 8.992188 2.117188 8.265625 1.609375 C 7.546875 1.109375 6.988281 0.445312 6.59375 -0.375 C 6.195312 -1.207031 6 -2.269531 6 -3.5625 L 6 -21.90625 L 0.484375 -21.90625 L 0.484375 -27.703125 Z M 6 -27.703125 "/></g></g></g><g fill="#eb5a33" fill-opacity="1"><g transform="translate(77.813474, 237.880816)"><g><path d="M 2.375 -12.8125 C 2.375 -15.050781 2.707031 -17.144531 3.375 -19.09375 C 4.039062 -21.039062 5.015625 -22.734375 6.296875 -24.171875 C 7.578125 -25.617188 9.15625 -26.753906 11.03125 -27.578125 C 12.90625 -28.410156 15.050781 -28.828125 17.46875 -28.828125 C 19.59375 -28.828125 21.429688 -28.53125 22.984375 -27.9375 C 24.535156 -27.34375 25.851562 -26.582031 26.9375 -25.65625 C 28.019531 -24.738281 28.894531 -23.726562 29.5625 -22.625 C 30.226562 -21.53125 30.722656 -20.476562 31.046875 -19.46875 L 23.96875 -18.609375 C 23.238281 -19.972656 22.359375 -20.988281 21.328125 -21.65625 C 20.304688 -22.332031 19.019531 -22.671875 17.46875 -22.671875 C 15.09375 -22.671875 13.179688 -21.800781 11.734375 -20.0625 C 10.296875 -18.332031 9.578125 -15.914062 9.578125 -12.8125 C 9.578125 -9.75 10.257812 -7.320312 11.625 -5.53125 C 13 -3.75 14.894531 -2.859375 17.3125 -2.859375 C 20.550781 -2.859375 22.875 -4.335938 24.28125 -7.296875 L 31.328125 -6.328125 C 30.921875 -5.171875 30.359375 -4.023438 29.640625 -2.890625 C 28.921875 -1.753906 28 -0.738281 26.875 0.15625 C 25.757812 1.0625 24.410156 1.800781 22.828125 2.375 C 21.242188 2.957031 19.40625 3.25 17.3125 3.25 C 14.96875 3.25 12.875 2.820312 11.03125 1.96875 C 9.195312 1.125 7.640625 -0.015625 6.359375 -1.453125 C 5.078125 -2.898438 4.09375 -4.601562 3.40625 -6.5625 C 2.71875 -8.53125 2.375 -10.613281 2.375 -12.8125 Z M 2.375 -12.8125 "/></g></g></g><g fill="#eb5a33" fill-opacity="1"><g transform="translate(111.244121, 237.880816)"><g><path d="M 2.4375 -12.765625 C 2.4375 -15.179688 2.722656 -17.378906 3.296875 -19.359375 C 3.878906 -21.347656 4.738281 -23.046875 5.875 -24.453125 C 7.007812 -25.859375 8.421875 -26.9375 10.109375 -27.6875 C 11.804688 -28.445312 13.773438 -28.828125 16.015625 -28.828125 C 17.566406 -28.828125 19.070312 -28.554688 20.53125 -28.015625 C 21.988281 -27.472656 23.40625 -26.570312 24.78125 -25.3125 L 24.78125 -38.890625 L 31.921875 -38.890625 L 31.921875 2.328125 L 24.78125 2.328125 L 24.78125 0.046875 C 23.40625 1.203125 21.988281 2.023438 20.53125 2.515625 C 19.070312 3.003906 17.65625 3.25 16.28125 3.25 C 13.9375 3.25 11.898438 2.859375 10.171875 2.078125 C 8.441406 1.304688 7.007812 0.226562 5.875 -1.15625 C 4.738281 -2.550781 3.878906 -4.238281 3.296875 -6.21875 C 2.722656 -8.207031 2.4375 -10.390625 2.4375 -12.765625 Z M 17.3125 -2.859375 C 18.675781 -2.859375 20 -3.117188 21.28125 -3.640625 C 22.5625 -4.171875 23.726562 -4.867188 24.78125 -5.734375 L 24.78125 -19.359375 C 23.726562 -20.367188 22.570312 -21.171875 21.3125 -21.765625 C 20.050781 -22.367188 18.71875 -22.671875 17.3125 -22.671875 C 15.976562 -22.671875 14.820312 -22.40625 13.84375 -21.875 C 12.875 -21.351562 12.070312 -20.640625 11.4375 -19.734375 C 10.8125 -18.835938 10.34375 -17.785156 10.03125 -16.578125 C 9.726562 -15.367188 9.578125 -14.097656 9.578125 -12.765625 C 9.578125 -11.460938 9.726562 -10.207031 10.03125 -9 C 10.34375 -7.789062 10.8125 -6.734375 11.4375 -5.828125 C 12.070312 -4.929688 12.875 -4.210938 13.84375 -3.671875 C 14.820312 -3.128906 15.976562 -2.859375 17.3125 -2.859375 Z M 17.3125 -2.859375 "/></g></g></g><g fill="#eb5a33" fill-opacity="1"><g transform="translate(146.513997, 237.880816)"><g><path d="M 10.609375 -27.96875 L 10.609375 2.328125 L 3.40625 2.328125 L 3.40625 -27.96875 Z M 10.609375 -38.890625 L 10.609375 -32.234375 L 3.40625 -32.234375 L 3.40625 -38.890625 Z M 10.609375 -38.890625 "/></g></g></g><g fill="#eb5a33" fill-opacity="1"><g transform="translate(160.524581, 237.880816)"><g><path d="M 6 -27.703125 L 6 -35.8125 L 13.09375 -35.8125 L 13.09375 -27.703125 L 20.34375 -27.703125 L 20.34375 -21.90625 L 13.09375 -21.90625 L 13.09375 -5.578125 C 13.09375 -4.453125 13.46875 -3.71875 14.21875 -3.375 C 14.976562 -3.03125 15.9375 -2.859375 17.09375 -2.859375 C 18.28125 -2.859375 19.34375 -3.09375 20.28125 -3.5625 L 20.28125 2.15625 C 19.269531 2.488281 18.234375 2.71875 17.171875 2.84375 C 16.109375 2.96875 15.035156 3.03125 13.953125 3.03125 C 12.796875 3.03125 11.738281 2.921875 10.78125 2.703125 C 9.832031 2.484375 8.992188 2.117188 8.265625 1.609375 C 7.546875 1.109375 6.988281 0.445312 6.59375 -0.375 C 6.195312 -1.207031 6 -2.269531 6 -3.5625 L 6 -21.90625 L 0.484375 -21.90625 L 0.484375 -27.703125 Z M 6 -27.703125 "/></g></g></g><g fill="#eb5a33" fill-opacity="1"><g transform="translate(182.000259, 237.880816)"><g><path d="M 10.546875 -27.96875 L 10.546875 -9.203125 C 10.546875 -7.066406 11.125 -5.421875 12.28125 -4.265625 C 13.4375 -3.117188 14.929688 -2.546875 16.765625 -2.546875 C 18.066406 -2.546875 19.285156 -2.785156 20.421875 -3.265625 C 21.554688 -3.753906 22.644531 -4.539062 23.6875 -5.625 L 23.6875 -27.96875 L 30.828125 -27.96875 L 30.828125 2.328125 L 23.6875 2.328125 L 23.6875 -1.03125 C 22.320312 0.300781 20.816406 1.347656 19.171875 2.109375 C 17.535156 2.867188 15.867188 3.25 14.171875 3.25 C 10.566406 3.25 7.867188 2.316406 6.078125 0.453125 C 4.296875 -1.398438 3.40625 -4.148438 3.40625 -7.796875 L 3.40625 -27.96875 Z M 10.546875 -27.96875 "/></g></g></g><g fill="#eb5a33" fill-opacity="1"><g transform="translate(216.242336, 237.880816)"><g><path d="M 12.015625 -6.765625 L 12.015625 2.328125 L 3.734375 2.328125 L 3.734375 -6.765625 Z M 12.015625 -6.765625 "/></g></g></g><g fill="#eb5a33" fill-opacity="1"><g transform="translate(231.983956, 237.880816)"><g><path d="M 2.375 -12.8125 C 2.375 -15.050781 2.707031 -17.144531 3.375 -19.09375 C 4.039062 -21.039062 5.015625 -22.734375 6.296875 -24.171875 C 7.578125 -25.617188 9.15625 -26.753906 11.03125 -27.578125 C 12.90625 -28.410156 15.050781 -28.828125 17.46875 -28.828125 C 19.59375 -28.828125 21.429688 -28.53125 22.984375 -27.9375 C 24.535156 -27.34375 25.851562 -26.582031 26.9375 -25.65625 C 28.019531 -24.738281 28.894531 -23.726562 29.5625 -22.625 C 30.226562 -21.53125 30.722656 -20.476562 31.046875 -19.46875 L 23.96875 -18.609375 C 23.238281 -19.972656 22.359375 -20.988281 21.328125 -21.65625 C 20.304688 -22.332031 19.019531 -22.671875 17.46875 -22.671875 C 15.09375 -22.671875 13.179688 -21.800781 11.734375 -20.0625 C 10.296875 -18.332031 9.578125 -15.914062 9.578125 -12.8125 C 9.578125 -9.75 10.257812 -7.320312 11.625 -5.53125 C 13 -3.75 14.894531 -2.859375 17.3125 -2.859375 C 20.550781 -2.859375 22.875 -4.335938 24.28125 -7.296875 L 31.328125 -6.328125 C 30.921875 -5.171875 30.359375 -4.023438 29.640625 -2.890625 C 28.921875 -1.753906 28 -0.738281 26.875 0.15625 C 25.757812 1.0625 24.410156 1.800781 22.828125 2.375 C 21.242188 2.957031 19.40625 3.25 17.3125 3.25 C 14.96875 3.25 12.875 2.820312 11.03125 1.96875 C 9.195312 1.125 7.640625 -0.015625 6.359375 -1.453125 C 5.078125 -2.898438 4.09375 -4.601562 3.40625 -6.5625 C 2.71875 -8.53125 2.375 -10.613281 2.375 -12.8125 Z M 2.375 -12.8125 "/></g></g></g><g fill="#eb5a33" fill-opacity="1"><g transform="translate(265.414603, 237.880816)"><g><path d="M 2.375 -12.875 C 2.375 -14.925781 2.6875 -16.914062 3.3125 -18.84375 C 3.945312 -20.78125 4.894531 -22.488281 6.15625 -23.96875 C 7.425781 -25.445312 9.003906 -26.625 10.890625 -27.5 C 12.785156 -28.382812 15 -28.828125 17.53125 -28.828125 C 20.050781 -28.828125 22.265625 -28.394531 24.171875 -27.53125 C 26.085938 -26.664062 27.664062 -25.492188 28.90625 -24.015625 C 30.15625 -22.535156 31.09375 -20.832031 31.71875 -18.90625 C 32.351562 -16.976562 32.671875 -14.96875 32.671875 -12.875 C 32.671875 -10.707031 32.351562 -8.648438 31.71875 -6.703125 C 31.09375 -4.753906 30.148438 -3.050781 28.890625 -1.59375 C 27.628906 -0.132812 26.050781 1.035156 24.15625 1.921875 C 22.257812 2.804688 20.050781 3.25 17.53125 3.25 C 15 3.25 12.785156 2.804688 10.890625 1.921875 C 9.003906 1.035156 7.425781 -0.144531 6.15625 -1.625 C 4.894531 -3.101562 3.945312 -4.816406 3.3125 -6.765625 C 2.6875 -8.710938 2.375 -10.75 2.375 -12.875 Z M 9.515625 -12.875 C 9.515625 -9.738281 10.21875 -7.285156 11.625 -5.515625 C 13.03125 -3.742188 15 -2.859375 17.53125 -2.859375 C 20.082031 -2.859375 22.050781 -3.734375 23.4375 -5.484375 C 24.832031 -7.234375 25.53125 -9.695312 25.53125 -12.875 C 25.53125 -16.007812 24.789062 -18.425781 23.3125 -20.125 C 21.832031 -21.820312 19.90625 -22.671875 17.53125 -22.671875 C 15.1875 -22.671875 13.265625 -21.8125 11.765625 -20.09375 C 10.265625 -18.382812 9.515625 -15.976562 9.515625 -12.875 Z M 9.515625 -12.875 "/></g></g></g><g fill="#eb5a33" fill-opacity="1"><g transform="translate(300.468093, 237.880816)"><g><path d="M 10.546875 -27.96875 L 10.546875 -24.828125 C 11.804688 -26.054688 13.238281 -27.03125 14.84375 -27.75 C 16.445312 -28.46875 18.132812 -28.828125 19.90625 -28.828125 C 22.175781 -28.828125 24.023438 -28.445312 25.453125 -27.6875 C 26.878906 -26.9375 28.097656 -25.640625 29.109375 -23.796875 L 29.15625 -23.796875 C 30.457031 -25.316406 32.007812 -26.535156 33.8125 -27.453125 C 35.613281 -28.367188 37.414062 -28.828125 39.21875 -28.828125 C 42.425781 -28.828125 44.992188 -27.925781 46.921875 -26.125 C 48.859375 -24.320312 49.828125 -21.5625 49.828125 -17.84375 L 49.828125 2.328125 L 42.625 2.328125 L 42.625 -16.828125 C 42.625 -18.847656 42.082031 -20.378906 41 -21.421875 C 39.914062 -22.460938 38.546875 -22.984375 36.890625 -22.984375 C 35.703125 -22.984375 34.492188 -22.625 33.265625 -21.90625 C 32.035156 -21.1875 31.007812 -20.300781 30.1875 -19.25 L 30.1875 2.328125 L 23.046875 2.328125 L 23.046875 -16.5 C 23.046875 -18.664062 22.519531 -20.285156 21.46875 -21.359375 C 20.425781 -22.441406 19.148438 -22.984375 17.640625 -22.984375 C 16.304688 -22.984375 15.039062 -22.664062 13.84375 -22.03125 C 12.65625 -21.40625 11.554688 -20.570312 10.546875 -19.53125 L 10.546875 2.328125 L 3.40625 2.328125 L 3.40625 -27.96875 Z M 10.546875 -27.96875 "/></g></g></g></svg>