<?xml version="1.0" encoding="UTF-8"?>
<svg version="1.1" xmlns="http://www.w3.org/2000/svg" width="500" height="500">
<path d="M0 0 C165 0 330 0 500 0 C500 165 500 330 500 500 C335 500 170 500 0 500 C0 335 0 170 0 0 Z " fill="#FEFEFE" transform="translate(0,0)"/>
<path d="M0 0 C29.7 0 59.4 0 90 0 C90 33 90 66 90 100 C86.37 100 82.74 100 79 100 C79 98.68 79 97.36 79 96 C56.89 96 34.78 96 12 96 C12 97.65 12 99.3 12 101 C8.04 101 4.08 101 0 101 C0 67.67 0 34.34 0 0 Z " fill="#EB5F39" transform="translate(385,134)"/>
<path d="M0 0 C10.56570413 6.66061988 16.38094983 15.79896989 19.74609375 27.7890625 C22.35242285 41.84566888 21.36251479 57.14010919 13.62890625 69.4765625 C12.59985099 70.8563157 11.53783858 72.21222048 10.44140625 73.5390625 C9.92835937 74.17457031 9.4153125 74.81007813 8.88671875 75.46484375 C2.12902535 83.01470695 -6.92449483 86.05441575 -16.8203125 86.77734375 C-29.36523521 87.04912657 -38.79420321 83.94207591 -48.12109375 75.4140625 C-52.07615638 71.3539982 -54.34063236 66.70599877 -56.55859375 61.5390625 C-56.91308594 60.75789063 -57.26757812 59.97671875 -57.6328125 59.171875 C-62.01234066 46.71701434 -61.04199148 29.37675055 -55.55859375 17.5390625 C-51.97437248 11.16908509 -47.65630767 5.63254774 -41.55859375 1.5390625 C-40.84960938 1.05308594 -40.140625 0.56710938 -39.41015625 0.06640625 C-28.23770049 -6.25995277 -11.30390194 -5.75646784 0 0 Z " fill="#EB5C36" transform="translate(78.55859375,141.4609375)"/>
<path d="M0 0 C3.96 0 7.92 0 12 0 C12 7.92 12 15.84 12 24 C17.70044591 21.74596041 17.70044591 21.74596041 23.3972168 19.48266602 C24.11562744 19.20092529 24.83403809 18.91918457 25.57421875 18.62890625 C26.30213623 18.34088135 27.03005371 18.05285645 27.7800293 17.75610352 C30.1658979 16.94349656 32.52132368 16.44391359 35 16 C35.03989843 25.80969312 34.99117118 35.61221451 34.73754883 45.41894531 C34.7038415 46.82051228 34.67596092 48.2222301 34.65356445 49.62402344 C34.61986173 51.69781654 34.5677033 53.77045278 34.51171875 55.84375 C34.48553467 57.05224609 34.45935059 58.26074219 34.43237305 59.50585938 C33.83283152 64.35094033 32.59124327 68.50519572 28.9375 71.9375 C24.54795207 73.52520883 20.6534035 73.18613614 16 73 C15.34 68.71 14.68 64.42 14 60 C15.98 60 17.96 60 20 60 C21.25838557 57.48322887 21.20818973 55.58706712 21.31640625 52.7734375 C21.35830078 51.7421875 21.40019531 50.7109375 21.44335938 49.6484375 C21.48267578 48.56820312 21.52199219 47.48796875 21.5625 46.375 C21.62727539 44.74304688 21.62727539 44.74304688 21.69335938 43.078125 C21.79964427 40.3855743 21.90034504 37.69280424 22 35 C18.7 35.66 15.4 36.32 12 37 C12 51.85 12 66.7 12 82 C8.04 82 4.08 82 0 82 C0 68.8 0 55.6 0 42 C-1.65 42.66 -3.3 43.32 -5 44 C-5.99 44 -6.98 44 -8 44 C-7.67 58.52 -7.34 73.04 -7 88 C-2.56544671 90.21727665 3.5053316 89.18499503 8.375 89.1875 C9.62023437 89.19974609 10.86546875 89.21199219 12.1484375 89.22460938 C13.9428125 89.22750977 13.9428125 89.22750977 15.7734375 89.23046875 C16.87091309 89.23457764 17.96838867 89.23868652 19.09912109 89.24291992 C21.97869551 89.00178404 23.62184572 88.60956641 26 87 C27.12891757 84.60540353 27.12891757 84.60540353 27.75 81.875 C28.11351562 80.50988281 28.11351562 80.50988281 28.484375 79.1171875 C28.65453125 78.41851562 28.8246875 77.71984375 29 77 C30.60433809 77.47859241 32.20846416 77.95789558 33.8125 78.4375 C34.70582031 78.70433594 35.59914063 78.97117187 36.51953125 79.24609375 C38.35473055 79.80387873 40.18033726 80.39344575 42 81 C41.56903334 87.03353324 40.5281435 91.98046461 37 97 C31.05794851 101.82791684 26.15466661 102.16211957 18.7265625 102.203125 C17.92519867 102.20882507 17.12383484 102.21452515 16.29818726 102.22039795 C14.60538038 102.22982771 12.91255531 102.23637388 11.21972656 102.24023438 C8.64094793 102.24993998 6.06296677 102.28098169 3.484375 102.3125 C1.83594221 102.31903083 0.18750375 102.32428099 -1.4609375 102.328125 C-2.60965836 102.3466452 -2.60965836 102.3466452 -3.78158569 102.36553955 C-9.33263646 102.34263721 -13.28750681 101.13124465 -17.75 97.625 C-21.51831023 92.72619671 -21.33575061 87.44807424 -21.4140625 81.54296875 C-21.43342865 80.64000565 -21.4527948 79.73704254 -21.4727478 78.80671692 C-21.53234082 75.93373953 -21.57884769 73.06072163 -21.625 70.1875 C-21.66319845 68.23500895 -21.70225127 66.28253441 -21.7421875 64.33007812 C-21.83802569 59.55352016 -21.92213152 54.77688333 -22 50 C-23.32 50 -24.64 50 -26 50 C-26.495 46.04 -26.495 46.04 -27 42 C-29.97 42 -32.94 42 -36 42 C-36 52.56 -36 63.12 -36 74 C-33.69 73.01 -31.38 72.02 -29 71 C-27.68 71 -26.36 71 -25 71 C-23.82428549 74.67410785 -23.92633254 78.16929183 -24 82 C-30.44731774 85.36650363 -37.03768205 88.1122459 -43.8125 90.75 C-44.84826172 91.16121094 -45.88402344 91.57242188 -46.95117188 91.99609375 C-47.94310547 92.38410156 -48.93503906 92.77210938 -49.95703125 93.171875 C-51.30244995 93.6992627 -51.30244995 93.6992627 -52.67504883 94.23730469 C-55 95 -55 95 -58 95 C-58.99 91.37 -59.98 87.74 -61 84 C-51.375 80 -51.375 80 -48 80 C-48 67.46 -48 54.92 -48 42 C-51.63 42 -55.26 42 -59 42 C-59 37.71 -59 33.42 -59 29 C-55.37 29 -51.74 29 -48 29 C-48 20.09 -48 11.18 -48 2 C-43.71 2 -39.42 2 -35 2 C-35 10.91 -35 19.82 -35 29 C-32.03 29 -29.06 29 -26 29 C-25.505 32.96 -25.505 32.96 -25 37 C-24.01 36.67 -23.02 36.34 -22 36 C-21.67 27.75 -21.34 19.5 -21 11 C-16.71 11 -12.42 11 -8 11 C-8 17.6 -8 24.2 -8 31 C-6.35 30.34 -4.7 29.68 -3 29 C-2.01 29 -1.02 29 0 29 C0 19.43 0 9.86 0 0 Z " fill="#EB603A" transform="translate(327,131)"/>
<path d="M0 0 C6.71322644 4.60120015 11.77717467 10.69463616 13.7734375 18.6796875 C12.04536432 19.01864406 10.31591776 19.35060275 8.5859375 19.6796875 C7.62300781 19.8653125 6.66007812 20.0509375 5.66796875 20.2421875 C0.47287212 21.02741128 0.47287212 21.02741128 -2.2265625 20.6796875 C-3.67578125 19.0703125 -3.67578125 19.0703125 -4.9140625 16.9296875 C-8.39938433 11.87641883 -12.3626791 10.14109146 -18.2265625 8.6796875 C-24.71614163 7.50421656 -30.5465664 9.54048413 -36.2265625 12.6796875 C-42.14291057 18.08157052 -45.05276435 24.95136122 -45.61328125 32.87109375 C-46.06078491 44.44296827 -45.1072859 56.3540897 -36.984375 65.3125 C-30.21838267 70.57493848 -23.45808791 70.49813631 -15.2265625 69.6796875 C-11.09004094 68.65681514 -8.24867245 67.27845052 -5.91796875 63.6328125 C-5.52480469 62.90578125 -5.13164062 62.17875 -4.7265625 61.4296875 C-3.55859375 59.328125 -3.55859375 59.328125 -2.2265625 57.6796875 C3.4647968 56.74667778 8.27958227 58.11001458 13.7734375 59.6796875 C11.07481898 69.12485233 4.89517903 76.21698443 -3.63671875 81.04296875 C-13.34598057 85.50047626 -24.68409851 86.24030065 -35.046875 83.48828125 C-44.54534169 79.96465651 -52.16735568 73.66112173 -56.796875 64.609375 C-62.52673213 51.28336441 -63.96064745 33.81449229 -59.6640625 19.8046875 C-55.94597795 10.93346822 -50.56908552 3.58705398 -42.2265625 -1.3203125 C-41.5459375 -1.7328125 -40.8653125 -2.1453125 -40.1640625 -2.5703125 C-28.02447103 -8.64010823 -11.35345815 -6.7324015 0 0 Z " fill="#EB5D36" transform="translate(242.2265625,143.3203125)"/>
<path d="M0 0 C6.93109409 4.84113897 10.44979508 12.52473407 12.29296875 20.6015625 C13.51798192 31.35167805 11.89646611 42.29172994 6.10546875 51.6015625 C1.98825927 56.57445708 -2.77533607 59.25646385 -9.19140625 60.01171875 C-18.07834116 60.22733004 -24.07281729 58.81278966 -30.70703125 52.6015625 C-32.47265625 49.796875 -32.47265625 49.796875 -33.95703125 46.7265625 C-34.4571875 45.71851563 -34.95734375 44.71046875 -35.47265625 43.671875 C-39.11549946 34.61087891 -39.16222666 22.89769462 -36.14453125 13.6640625 C-33.08736504 6.50581967 -29.03119491 1.30988544 -21.83203125 -1.8984375 C-13.67767964 -4.64529612 -7.57241671 -4.20298478 0 0 Z " fill="#FEFDFC" transform="translate(71.70703125,154.3984375)"/>
<path d="M0 0 C23.1 0 46.2 0 70 0 C70 4.29 70 8.58 70 13 C60.76 13 51.52 13 42 13 C42 37.09 42 61.18 42 86 C37.05 86 32.1 86 27 86 C27 61.91 27 37.82 27 13 C18.09 13 9.18 13 0 13 C0 8.71 0 4.42 0 0 Z " fill="#EB5B34" transform="translate(105,140)"/>
<path d="M0 0 C3.3 0 6.6 0 10 0 C10 18.15 10 36.3 10 55 C6.7 55 3.4 55 0 55 C0 54.34 0 53.68 0 53 C-1.03833984 53.72896484 -1.03833984 53.72896484 -2.09765625 54.47265625 C-7.15304008 57.13302648 -12.43078416 56.61099846 -18 56 C-21.5 54.5 -21.5 54.5 -24 52 C-24.48210937 51.53335938 -24.96421875 51.06671875 -25.4609375 50.5859375 C-30.63917217 44.32055965 -29.9532731 35.68187915 -29.29101562 27.99902344 C-28.67527838 23.76944579 -27.03543034 20.93020208 -24 18 C-23.154375 17.175 -22.30875 16.35 -21.4375 15.5 C-16.37444023 13.29066483 -11.44273524 13.21335467 -6 14 C-4.02 14.99 -2.04 15.98 0 17 C0 11.39 0 5.78 0 0 Z " fill="#EB5F39" transform="translate(181,265)"/>
<path d="M0 0 C1.010625 -0.00773437 2.02125 -0.01546875 3.0625 -0.0234375 C7.35468627 0.55874734 9.97590859 2.35090859 13 5.375 C13.44988281 5.0140625 13.89976562 4.653125 14.36328125 4.28125 C20.12589688 0.12385195 24.99003851 -0.62642307 32 0.375 C36.31504408 2.08303828 37.99621587 4.24980993 40 8.375 C40.25139766 11.03008364 40.35182051 13.4365348 40.29296875 16.08203125 C40.28872391 16.80742599 40.28447906 17.53282074 40.28010559 18.28019714 C40.26339543 20.58301891 40.2257596 22.88494553 40.1875 25.1875 C40.17244316 26.7545446 40.1587565 28.321603 40.14648438 29.88867188 C40.11351731 33.71778957 40.06178992 37.54624334 40 41.375 C37.03 41.375 34.06 41.375 31 41.375 C30.98541748 40.54774414 30.97083496 39.72048828 30.95581055 38.86816406 C30.8813414 35.11997119 30.7846754 31.37267003 30.6875 27.625 C30.65366211 25.67207031 30.65366211 25.67207031 30.61914062 23.6796875 C30.58369141 22.42929687 30.54824219 21.17890625 30.51171875 19.890625 C30.48553467 18.73852539 30.45935059 17.58642578 30.43237305 16.39941406 C29.96076276 13.10053869 29.41209575 11.65482729 27 9.375 C21.73204936 8.74827931 21.73204936 8.74827931 16.91088867 10.48730469 C14.15631395 13.20844583 14.45732858 15.1929389 14.390625 19.01171875 C14.35839844 20.31044922 14.32617188 21.60917969 14.29296875 22.94726562 C14.27822414 24.31900595 14.26390669 25.69075093 14.25 27.0625 C14.22184125 28.44600111 14.19191392 29.82946744 14.16015625 31.21289062 C14.08933891 34.60032021 14.03669824 37.98705667 14 41.375 C10.7 41.375 7.4 41.375 4 41.375 C3.98018066 40.47668457 3.96036133 39.57836914 3.93994141 38.65283203 C3.86190739 35.32409922 3.77521886 31.99582744 3.68261719 28.66748047 C3.64430326 27.2261626 3.60945457 25.78474832 3.578125 24.34326172 C3.53252554 22.27276114 3.47452556 20.20292567 3.4140625 18.1328125 C3.36693115 16.26326904 3.36693115 16.26326904 3.31884766 14.35595703 C3.30317691 11.25958224 3.30317691 11.25958224 1 9.375 C-1.10589077 9.05636311 -1.10589077 9.05636311 -3.4375 9.125 C-4.21996094 9.11984375 -5.00242187 9.1146875 -5.80859375 9.109375 C-8.29044107 9.24323169 -8.29044107 9.24323169 -11 11.375 C-11.51220541 14.47713725 -11.51220541 14.47713725 -11.51171875 18.1328125 C-11.52966995 18.79586395 -11.54762115 19.45891541 -11.56611633 20.14205933 C-11.62032924 22.26130803 -11.65414771 24.38033025 -11.6875 26.5 C-11.72066367 27.93622952 -11.75515245 29.3724291 -11.79101562 30.80859375 C-11.87605964 34.33051129 -11.94281873 37.85250759 -12 41.375 C-15.3 41.375 -18.6 41.375 -22 41.375 C-22 28.175 -22 14.975 -22 1.375 C-18.7 1.375 -15.4 1.375 -12 1.375 C-11.67 2.035 -11.34 2.695 -11 3.375 C-10.29875 2.88773437 -9.5975 2.40046875 -8.875 1.8984375 C-5.62677184 0.17722965 -3.64843804 -0.02792172 0 0 Z " fill="#EB5F39" transform="translate(427,278.625)"/>
<path d="M0 0 C4.84703985 2.94321316 7.60674292 7.39531989 9.5625 12.625 C10.60625244 19.33606938 10.38001575 26.7923366 6.5625 32.625 C1.31871128 38.13687608 -2.32945951 40.78943869 -10 41.0625 C-16.05213797 41.00663411 -19.92190846 40.24927476 -24.66015625 36.4375 C-29.69257391 31.30554001 -30.68534097 26.77714715 -30.9375 19.625 C-30.7069574 12.19993818 -29.34260373 7.38484854 -23.9375 2.25 C-16.7889558 -2.39655373 -8.08332213 -3.31463112 0 0 Z " fill="#EB5E38" transform="translate(62.4375,280.375)"/>
<path d="M0 0 C4.84826358 2.01710818 9.00966062 5.95682125 11.375 10.6875 C13.24670184 17.61279681 13.34726006 26.09773531 10.3125 32.6875 C7.29743949 37.58166512 3.37149355 40.15722484 -2 42 C-8.49920221 42.73810999 -14.31128178 42.45784833 -20 39 C-25.82510694 33.66031864 -28.02759747 28.50669484 -28.375 20.625 C-28.22897576 14.29441985 -26.71146718 9.7658173 -22.24609375 5.2109375 C-15.39328267 -0.82640337 -8.89745049 -0.95493793 0 0 Z " fill="#EB5E38" transform="translate(385,279)"/>
<path d="M0 0 C6.0147072 2.32071152 12.02690343 4.41963219 18.25 6.125 C18.37375 5.34125 18.4975 4.5575 18.625 3.75 C19.25 1.125 19.25 1.125 21.25 -0.875 C21.25 10.015 21.25 20.905 21.25 32.125 C16.96 32.125 12.67 32.125 8.25 32.125 C8.745 27.175 8.745 27.175 9.25 22.125 C8.42935059 22.01687988 7.60870117 21.90875977 6.76318359 21.79736328 C-2.60669001 20.51649487 -11.85114633 18.83599598 -21.125 17 C-22.55462365 16.71972621 -23.98431093 16.43977676 -25.4140625 16.16015625 C-28.86011279 15.48548894 -32.30529442 14.80650419 -35.75 14.125 C-35.75 17.095 -35.75 20.065 -35.75 23.125 C-15.455 27.085 -15.455 27.085 5.25 31.125 C5.25 31.455 5.25 31.785 5.25 32.125 C-11.25 32.125 -27.75 32.125 -44.75 32.125 C-44.75 22.555 -44.75 12.985 -44.75 3.125 C-44.09 4.445 -43.43 5.765 -42.75 7.125 C-41.83476562 6.7640625 -40.91953125 6.403125 -39.9765625 6.03125 C-38.78804688 5.5671875 -37.59953125 5.103125 -36.375 4.625 C-35.19164062 4.1609375 -34.00828125 3.696875 -32.7890625 3.21875 C-29.75 2.125 -29.75 2.125 -27.75 2.125 C-27.75 4.765 -27.75 7.405 -27.75 10.125 C-27.11578125 10.16238281 -26.4815625 10.19976562 -25.828125 10.23828125 C-15.7167037 10.95054988 -5.75731348 12.5527047 4.25 14.125 C4.25 11.155 4.25 8.185 4.25 5.125 C3.33734375 5.06892578 3.33734375 5.06892578 2.40625 5.01171875 C-6.11699471 4.3724754 -14.38177885 2.79444437 -22.75 1.125 C-21.49379011 -1.38741978 -20.6344284 -1.55822319 -18.0625 -2.5625 C-17.39863281 -2.83449219 -16.73476563 -3.10648438 -16.05078125 -3.38671875 C-10.41545709 -4.5826704 -5.17174949 -2.04219706 0 0 Z " fill="#FEFAF9" transform="translate(441.75,186.875)"/>
<path d="M0 0 C3.3 0 6.6 0 10 0 C10.01458252 0.86278564 10.02916504 1.72557129 10.04418945 2.61450195 C10.10527754 5.81849647 10.17943549 9.02184625 10.26245117 12.2253418 C10.29568549 13.61129377 10.32372226 14.99738061 10.34643555 16.38354492 C10.38000617 18.37706843 10.43388 20.37021741 10.48828125 22.36328125 C10.51446533 23.56251221 10.54064941 24.76174316 10.56762695 25.99731445 C10.7555205 28.98127831 10.7555205 28.98127831 12.3972168 30.89208984 C14.52545719 32.36321778 15.9311908 32.36815753 18.5 32.3125 C19.66015625 32.30669922 19.66015625 32.30669922 20.84375 32.30078125 C23.29324946 32.11825461 23.29324946 32.11825461 26 30 C26.51220541 26.89786275 26.51220541 26.89786275 26.51171875 23.2421875 C26.52966995 22.57913605 26.54762115 21.91608459 26.56611633 21.23294067 C26.62032924 19.11369197 26.65414771 16.99466975 26.6875 14.875 C26.72066367 13.43877048 26.75515245 12.0025709 26.79101562 10.56640625 C26.87605964 7.04448871 26.94281873 3.52249241 27 0 C30.3 0 33.6 0 37 0 C37 13.2 37 26.4 37 40 C33.7 40 30.4 40 27 40 C27 39.01 27 38.02 27 37 C25.906875 37.66 24.81375 38.32 23.6875 39 C18.53686657 41.55244534 13.64885019 42.00040706 8 41 C4.62358551 39.36213691 2.5878853 37.1454322 0.85986328 33.77856445 C-0.21081754 30.31876365 -0.22511514 27.35148952 -0.1953125 23.73046875 C-0.1924826 23.04946609 -0.18965271 22.36846344 -0.18673706 21.66682434 C-0.17560525 19.50686545 -0.15051457 17.34733206 -0.125 15.1875 C-0.11496111 13.71680289 -0.10583685 12.24609924 -0.09765625 10.77539062 C-0.07568913 7.18345714 -0.0412082 3.59177015 0 0 Z " fill="#EB603B" transform="translate(247,280)"/>
<path d="M0 0 C21.78 0 43.56 0 66 0 C66 11.88 66 23.76 66 36 C59.89826175 35.32202908 55.53981998 34.76562547 49.9375 32.9375 C48.81214844 32.57527344 47.68679688 32.21304688 46.52734375 31.83984375 C45.69332031 31.56269531 44.85929687 31.28554687 44 31 C48.19675687 26.61944356 52.74058163 23.17915852 57.671875 19.671875 C60.92625186 16.44916347 60.92625186 16.44916347 61 8 C49.12 8 37.24 8 25 8 C25.66 6.35 26.32 4.7 27 3 C23.7 2.34 20.4 1.68 17 1 C16.75765625 1.71027344 16.5153125 2.42054688 16.265625 3.15234375 C14.81553153 6.41505406 13.0089305 8.80030437 10.75 11.5625 C10.00234375 12.49191406 9.2546875 13.42132813 8.484375 14.37890625 C6 17 6 17 0 21 C0 14.07 0 7.14 0 0 Z " fill="#FEFCFC" transform="translate(397,146)"/>
<path d="M0 0 C3.37011947 2.54813911 6.18280978 5.43547361 8.5625 8.9375 C8.5625 9.5975 8.5625 10.2575 8.5625 10.9375 C5.21930138 11.5244738 1.96207623 11.99685768 -1.4375 11.9375 C-3.5625 10 -3.5625 10 -5.4375 7.9375 C-10.19203845 7.25828022 -12.26432804 7.27759077 -16.4375 9.625 C-19.53345021 14.75266754 -19.30554854 20.0926398 -18.4375 25.9375 C-16.66601411 29.64886326 -16.66601411 29.64886326 -13.4375 31.9375 C-7.60222936 32.28721507 -7.60222936 32.28721507 -2.4375 29.9375 C-1.7775 28.9475 -1.1175 27.9575 -0.4375 26.9375 C2.5325 27.2675 5.5025 27.5975 8.5625 27.9375 C8.07946726 32.24763828 6.9607201 33.9610163 3.625 36.6875 C2.91472656 37.28046875 2.20445312 37.8734375 1.47265625 38.484375 C-3.68176084 42.40552665 -10.23898999 41.4393178 -16.4375 40.9375 C-22.1005848 38.35433851 -25.9709207 33.8706586 -28.75 28.3125 C-30.38169599 20.30235603 -30.63057042 12.87830203 -26.03125 5.8515625 C-19.27394313 -2.26383056 -9.82298928 -3.03619669 0 0 Z " fill="#EB5E38" transform="translate(136.4375,280.0625)"/>
<path d="M0 0 C3.45852686 2.05210189 6.50408847 4.40073228 8.42578125 8.00390625 C8.42578125 8.99390625 8.42578125 9.98390625 8.42578125 11.00390625 C5.41199799 11.6079761 2.50502531 12.06131589 -0.57421875 12.00390625 C-2.27672268 10.71664718 -3.94486634 9.38258906 -5.57421875 8.00390625 C-8.52835221 7.37853525 -10.48179868 7.61121799 -13.57421875 8.00390625 C-16.82804806 10.33998883 -17.81662296 12.17383864 -18.57421875 16.00390625 C-19.08550001 20.61381925 -19.27961634 24.53955987 -16.63671875 28.50390625 C-15.16028783 30.30372016 -15.16028783 30.30372016 -13.57421875 32.00390625 C-7.89596649 32.66451083 -7.89596649 32.66451083 -3.19921875 30.00390625 C0.753509 26.99230415 4.6223805 27.66813455 9.42578125 28.00390625 C8.15050387 33.487599 5.9900467 35.78207181 1.42578125 39.00390625 C-4.14300516 41.65792653 -9.5126212 41.76651969 -15.57421875 41.00390625 C-21.27624224 38.85758723 -24.66711011 35.35298615 -27.57421875 30.00390625 C-29.59089966 23.95386353 -29.59325686 15.87884735 -27.9609375 9.671875 C-22.4982288 -0.98882965 -10.93205901 -4.2301594 0 0 Z " fill="#EB5E38" transform="translate(341.57421875,279.99609375)"/>
<path d="M0 0 C3.3 0 6.6 0 10 0 C10 3.63 10 7.26 10 11 C12.97 11 15.94 11 19 11 C19 13.64 19 16.28 19 19 C16.03 19 13.06 19 10 19 C10.33 26.92 10.66 34.84 11 43 C13.64 43.33 16.28 43.66 19 44 C19.04241723 46.33294775 19.04092937 48.66702567 19 51 C17.21066124 52.78933876 14.6698379 52.25643059 12.25 52.3125 C8.1596655 52.28818172 6.39322234 52.23130726 2.8125 50.125 C-0.19940413 46.59380206 -0.11908121 44.48337993 -0.09765625 39.8984375 C-0.09443359 38.68671875 -0.09121094 37.475 -0.08789062 36.2265625 C-0.07951172 34.95554687 -0.07113281 33.68453125 -0.0625 32.375 C-0.05798828 31.09625 -0.05347656 29.8175 -0.04882812 28.5 C-0.03701203 25.33328708 -0.02053815 22.16666644 0 19 C-2.31 19 -4.62 19 -7 19 C-7 16.36 -7 13.72 -7 11 C-4.69 11 -2.38 11 0 11 C0 7.37 0 3.74 0 0 Z " fill="#EB603B" transform="translate(83,269)"/>
<path d="M0 0 C2.97 0 5.94 0 9 0 C9 3.63 9 7.26 9 11 C12.3 11 15.6 11 19 11 C19 13.64 19 16.28 19 19 C15.7 19 12.4 19 9 19 C9.14011038 22.81279106 9.28680438 26.62512562 9.4375 30.4375 C9.47681641 31.52611328 9.51613281 32.61472656 9.55664062 33.73632812 C9.59853516 34.77080078 9.64042969 35.80527344 9.68359375 36.87109375 C9.72025146 37.82943115 9.75690918 38.78776855 9.79467773 39.77514648 C9.75834424 41.97138925 9.75834424 41.97138925 11 43 C13.67058851 43.14115161 16.32432238 43.04247107 19 43 C19 45.64 19 48.28 19 51 C16.30893093 52.34553453 14.12834578 52.20594114 11.125 52.25 C9.55105469 52.28867187 9.55105469 52.28867187 7.9453125 52.328125 C4.64472815 51.96042064 3.33336396 51.3225111 1 49 C-0.09911549 45.70265354 -0.1139456 43.27041255 -0.09765625 39.80078125 C-0.09282227 37.98803711 -0.09282227 37.98803711 -0.08789062 36.13867188 C-0.07951172 34.87603516 -0.07113281 33.61339844 -0.0625 32.3125 C-0.05798828 31.03826172 -0.05347656 29.76402344 -0.04882812 28.45117188 C-0.03702873 25.30073436 -0.02056597 22.15039051 0 19 C-2.31 19 -4.62 19 -7 19 C-7 16.36 -7 13.72 -7 11 C-4.69 11 -2.38 11 0 11 C0 7.37 0 3.74 0 0 Z " fill="#EB5C36" transform="translate(222,269)"/>
<path d="M0 0 C3.0220794 1.74450506 5.41651082 3.83302164 7 7 C7.40837661 11.87695917 7.64885631 16.44274485 5.75 21 C2.51687145 24.69500405 1.11317061 25.858645 -3.9375 26.5 C-7.41596163 26.37669632 -8.01148339 25.99095988 -10.9375 23.6875 C-14.84370079 18.597602 -14.51570458 13.17940752 -14 7 C-11.27443544 0.64034936 -6.7323565 -1.2829585 0 0 Z " fill="#FEFBFA" transform="translate(381,287)"/>
<path d="M0 0 C3.5386994 1.65139305 4.81070153 2.71605229 7 6 C7.63461106 11.52701959 8.29544482 17.87969566 5.1875 22.75 C2.36656615 25.65153196 0.6218358 25.94242261 -3.375 26.3125 C-7.65664327 25.94339282 -9.07571696 25.09138492 -12 22 C-14.56603318 17.72327804 -14.70909135 12.85257696 -14 8 C-10.52385665 1.40731435 -7.45621037 -0.64277676 0 0 Z " fill="#FEFBFA" transform="translate(55,287)"/>
<path d="M0 0 C3.61498599 0.80403366 5.51279724 1.95524387 8.23046875 4.49609375 C8.97389 7.77192395 8.79773284 10.90858638 8.60546875 14.24609375 C8.57839844 15.13425781 8.55132812 16.02242188 8.5234375 16.9375 C8.45283499 19.1261777 8.35432402 21.30988943 8.23046875 23.49609375 C2.95771684 26.30872813 0.12687101 27.33843693 -5.76953125 26.49609375 C-8.4875902 24.30691819 -10.2097999 21.61555645 -11.76953125 18.49609375 C-12.29025023 12.83828171 -12.51697818 8.07630666 -8.76953125 3.49609375 C-8.37765625 2.89796875 -7.98578125 2.29984375 -7.58203125 1.68359375 C-5.15120003 0.09098019 -2.85364559 0.08543849 0 0 Z " fill="#FEFCFB" transform="translate(172.76953125,286.50390625)"/>
<path d="M0 0 C2.97 0 5.94 0 9 0 C9 13.2 9 26.4 9 40 C6.03 40 3.06 40 0 40 C0 26.8 0 13.6 0 0 Z " fill="#EB5A33" transform="translate(200,280)"/>
<path d="M0 0 C4.03744506 2.01872253 6.62010675 4.08100128 10 7 C7.88659536 9.11340464 6.75014354 9.58435125 3.97265625 10.5078125 C3.18052734 10.77207031 2.38839844 11.03632813 1.57226562 11.30859375 C0.74404297 11.57800781 -0.08417969 11.84742188 -0.9375 12.125 C-1.76185547 12.40214844 -2.58621094 12.67929688 -3.43554688 12.96484375 C-9.60618073 15 -9.60618073 15 -13 15 C-13 10.38 -13 5.76 -13 1 C-11.35 2.32 -9.7 3.64 -8 5 C-8 5.66 -8 6.32 -8 7 C-4.04 3.535 -4.04 3.535 0 0 Z " fill="#FEFAF9" transform="translate(410,168)"/>
<path d="M0 0 C3.63 0 7.26 0 11 0 C11 3.96 11 7.92 11 12 C7.37 12 3.74 12 0 12 C0 8.04 0 4.08 0 0 Z " fill="#EB5D37" transform="translate(293,308)"/>
<path d="M0 0 C6.93 0 13.86 0 21 0 C14.47826087 6.52173913 14.47826087 6.52173913 11 8 C6.44987731 7.0666415 3.35854925 4.04612606 0 1 C0 0.67 0 0.34 0 0 Z " fill="#FEFAF8" transform="translate(420,163)"/>
<path d="M0 0 C2.97 0 5.94 0 9 0 C9 2.97 9 5.94 9 9 C6.03 9 3.06 9 0 9 C0 6.03 0 3.06 0 0 Z " fill="#EB5C35" transform="translate(200,265)"/>
</svg>
